ProbingCalcoraesSans.sfdir
StartChar: exclam
Encoding: 33 33 111
Width: 530
Flags: W
HStem: -1 60<203.52 386.492> 470 21G<117 217.139 338.857 431> 672 20G<142 237.12 296.957 398>
VStem: 82 66<113.237 272.131>
LayerCount: 2
Fore
SplineSet
398 679 m 1
 198 470 l 1
 117 470 l 1
 117 483 l 1
 316 692 l 1
 398 692 l 1
 398 679 l 1
82 184 m 3
 82 325 196 398 360 452 c 1
 375 463 405 462 431 458 c 1
 431 410 l 1
 232 350 148 307 148 186 c 3
 148 102 211 59 287 59 c 3
 335 59 394 71 448 125 c 1
 461 125 l 1
 461 48 l 1
 419 16 360 -1 298 -1 c 3
 186 -1 82 57 82 184 c 3
219 692 m 1
 431 458 l 1
 357 442 l 1
 142 679 l 1
 142 692 l 1
 219 692 l 1
EndSplineSet
EndChar
StartChar: parenleft
Encoding: 40 40 106
Width: 390
Flags: W
HStem: 702 20G<192.5 307>
VStem: 67 66<81.9778 424.022>
LayerCount: 2
Fore
SplineSet
67 253 m 7
 67 442 147 658 238 722 c 1
 307 722 l 1
 307 705 l 1
 209 630 133 437 133 253 c 7
 133 69 209 -124 307 -199 c 1
 307 -216 l 1
 238 -216 l 1
 147 -152 67 64 67 253 c 7
EndSplineSet
EndChar
StartChar: parenright
Encoding: 41 41 107
Width: 390
Flags: W
HStem: 702 20G<83 197.5>
VStem: 257 66<81.9778 424.022>
LayerCount: 2
Fore
SplineSet
323 253 m 3
 323 64 243 -152 152 -216 c 1
 83 -216 l 1
 83 -199 l 1
 181 -124 257 69 257 253 c 3
 257 437 181 630 83 705 c 1
 83 722 l 1
 152 722 l 1
 243 658 323 442 323 253 c 3
EndSplineSet
EndChar
StartChar: plus
Encoding: 43 43 108
Width: 550
Flags: W
HStem: 252 60<90 460> 456 20G<242 308>
VStem: 242 66<90 476>
LayerCount: 2
Fore
SplineSet
242 476 m 1
 308 476 l 25
 308 90 l 1
 242 90 l 25
 242 476 l 1
90 312 m 1
 460 312 l 1
 460 252 l 1
 90 252 l 1
 90 312 l 1
EndSplineSet
EndChar
StartChar: comma
Encoding: 44 44 103
Width: 300
Flags: W
HStem: -153 231<132 135>
VStem: 92 126
LayerCount: 2
Fore
SplineSet
135 -154 m 1
 92 -153 l 1
 132 78 l 1
 218 78 l 17
 218 59 l 1
 135 -154 l 1
EndSplineSet
EndChar
StartChar: hyphen
Encoding: 45 45 70
Width: 460
Flags: W
HStem: 252 60<90 370>
VStem: 90 280<252 312>
LayerCount: 2
Fore
SplineSet
90 312 m 1
 370 312 l 1
 370 252 l 1
 90 252 l 1
 90 312 l 1
EndSplineSet
EndChar
StartChar: period
Encoding: 46 46 71
Width: 270
Flags: W
HStem: -10 88<102 168>
VStem: 102 66<-10 78>
LayerCount: 2
Fore
SplineSet
168 -10 m 1
 102 -10 l 25
 102 78 l 1
 168 78 l 25
 168 -10 l 1
EndSplineSet
EndChar
StartChar: zero
Encoding: 48 48 95
Width: 560
Flags: W
HStem: -4 60<207.347 350.623> 636 60<211.111 348.243>
VStem: 67 68<162.04 523.345> 425 68<162.04 523.345>
LayerCount: 2
Fore
SplineSet
67 367 m 2
 67 548 145 696 282 696 c 0
 419 696 493 548 493 367 c 2
 493 315 l 6
 493 134 415 -4 278 -4 c 4
 141 -4 67 134 67 315 c 6
 67 367 l 2
425 367 m 2
 425 517 391 636 280 636 c 0
 170 636 135 517 135 367 c 2
 135 315 l 6
 135 165 169 56 280 56 c 4
 390 56 425 165 425 315 c 6
 425 367 l 2
EndSplineSet
EndChar
StartChar: one
Encoding: 49 49 96
Width: 560
Flags: W
HStem: 4 60<135 250 316 425> 20 44<250 316> 627 60<140 250 316 420> 627 37<250 316>
VStem: 250 66<20 662>
LayerCount: 2
Fore
SplineSet
140 627 m 25x28
 140 687 l 25
 420 687 l 25
 420 627 l 25
 140 627 l 25x28
135 4 m 29x88
 135 64 l 29
 425 64 l 29
 425 4 l 29
 135 4 l 29x88
316 20 m 5x58
 250 20 l 5
 250 662 l 1
 280 664 l 1
 316 664 l 25
 316 20 l 5x58
EndSplineSet
EndChar
StartChar: two
Encoding: 50 50 97
Width: 560
Flags: W
HStem: 5 60<158 488> 586 21G<438.5 481> 636 60<218.498 417.445>
VStem: 92 66<65 565.691>
LayerCount: 2
Fore
SplineSet
92 406 m 3
 92 629 143 696 313 696 c 3
 384 696 428 681 481 653 c 1
 481 586 l 1
 468 586 l 1
 409 624 365 636 315 636 c 3
 203 636 158 594 158 408 c 3
 158 218 158 65 158 65 c 5
 488 65 l 5
 488 5 l 5
 92 5 l 29
 92 165 92 183 92 406 c 3
EndSplineSet
EndChar
StartChar: three
Encoding: 51 51 98
Width: 560
Flags: W
HStem: -4 60<249.162 426.042> 317 60<124 460> 586 21G<448.5 491> 636 60<247.047 427.445>
VStem: 124 14<317 377>
LayerCount: 2
Fore
SplineSet
72 341 m 3
 72 564 153 696 323 696 c 3
 394 696 438 681 491 653 c 1
 491 586 l 1
 478 586 l 1
 419 624 375 636 325 636 c 3
 213 636 138 529 138 343 c 3
 138 153 221 56 327 56 c 7
 377 56 419 69 478 107 c 5
 491 107 l 5
 491 40 l 5
 436 10 394 -4 323 -4 c 7
 153 -4 72 118 72 341 c 3
124 377 m 1
 460 377 l 1
 460 317 l 1
 124 317 l 1
 124 377 l 1
EndSplineSet
EndChar
StartChar: four
Encoding: 52 52 99
Width: 560
Flags: W
HStem: -4 60<199.026 360.22> 440 247<188 370> 470 30<250 316> 627 60<140 250 316 420> 627 37<250 316>
VStem: 62 66<134.494 356.743> 250 66<470 662> 432 66<139.257 361.506>
LayerCount: 2
Fore
SplineSet
140 627 m 25x97
 140 687 l 25
 420 687 l 25
 420 627 l 25
 140 627 l 25x97
316 470 m 1xaf
 250 470 l 1
 250 662 l 1
 280 664 l 1
 316 664 l 25
 316 470 l 1xaf
280 -4 m 7
 157 -4 62 74 62 244 c 3
 62 427 158 500 279 500 c 3
 403 500 498 422 498 252 c 3
 498 69 402 -4 280 -4 c 7
277 440 m 3xc7
 188 440 128 371 128 246 c 3
 128 114 190 56 282 56 c 7
 372 56 432 125 432 250 c 3
 432 382 370 440 277 440 c 3xc7
EndSplineSet
EndChar
StartChar: five
Encoding: 53 53 100
Width: 560
Flags: W
HStem: -5 21G<92 158 417 483> 375 60<245.435 381.91> 627 60<158 468>
VStem: 92 66<-5 627> 417 66<-5 340.085>
LayerCount: 2
Fore
SplineSet
483 -5 m 5
 417 -5 l 5
 417 242 l 6
 417 322 395 375 317 375 c 7
 256 375 201 328 145 258 c 5
 110 296 l 5
 161 367 223 435 330 435 c 7
 440 435 483 355 483 252 c 6
 483 -5 l 5
468 687 m 1
 468 627 l 1
 158 627 l 1
 158 -5 l 5
 92 -5 l 5
 92 687 l 1
 468 687 l 1
EndSplineSet
EndChar
StartChar: six
Encoding: 54 54 101
Width: 560
Flags: W
HStem: -4 60<181.86 333.973> 532 21G<363.707 441> 672 20G<77 159.574 292 370.389>
VStem: 72 66<101.652 259.004>
LayerCount: 2
Fore
SplineSet
77 679 m 1
 77 692 l 1
 149 692 l 1
 508 13 l 1
 508 0 l 1
 437 0 l 1
 77 679 l 1
72 176 m 3
 72 311 183 393 378 542 c 1
 393 553 415 552 441 548 c 1
 441 506 l 1
 254 360 138 299 138 178 c 3
 138 94 191 56 257 56 c 3
 315 56 364 88 398 142 c 1
 411 142 l 1
 411 65 l 1
 381 26 320 -4 258 -4 c 3
 148 -4 72 60 72 176 c 3
359 692 m 1
 441 548 l 1
 375 532 l 1
 292 679 l 1
 292 692 l 1
 359 692 l 1
EndSplineSet
EndChar
StartChar: seven
Encoding: 55 55 102
Width: 560
Flags: W
HStem: -4 60<223.966 437.217> 29 61<411.914 473> 378 21G<419 451> 410 60<211.613 384.372> 627 60<105 385>
VStem: 72 66<139.291 333.843> 385 66<416 627>
LayerCount: 2
Fore
SplineSet
473 29 m 5x7e
 432 8 376 -4 321 -4 c 7
 197 -4 72 54 72 234 c 7
 72 407 183 470 305 470 c 7
 361 470 405 461 451 445 c 5
 451 378 l 5
 442 378 l 5
 396 398 360 410 303 410 c 7
 213 410 138 361 138 236 c 7
 138 104 230 56 323 56 c 7xbe
 369 56 420 66 461 90 c 5
 473 90 l 5
 473 29 l 5x7e
105 687 m 1
 451 687 l 25
 451 416 l 5
 385 416 l 21
 385 627 l 1
 105 627 l 1
 105 687 l 1
EndSplineSet
EndChar
StartChar: eight
Encoding: 56 56 104
Width: 560
Flags: W
HStem: -4 60<115.285 339.687> 26 65<72 146.837> 351 21G<153.667 176> 375 64<264 347.612> 627 60<76 337>
VStem: 414 66<130.304 309.945>
LayerCount: 2
Fore
SplineSet
76 687 m 1xbc
 426 687 l 1
 426 635 l 1
 263 442 l 1
 264 439 l 1
 361 439 480 375 480 234 c 0
 480 65 374 -4 241 -4 c 0xbc
 185 -4 117 8 72 26 c 9
 72 91 l 1
 82 91 l 1x7c
 123 73 182 56 246 56 c 0
 338 56 414 103 414 229 c 0
 414 334 335 375 259 375 c 0
 221 375 187 366 165 351 c 1
 154 351 l 1
 153 411 l 1
 337 627 l 1
 86 627 l 1
 76 627 l 1
 76 687 l 1xbc
EndSplineSet
EndChar
StartChar: nine
Encoding: 57 57 105
Width: 560
Flags: W
HStem: 0 21G<250 316> 105 60<190.568 364.195> 550 20G<62 128 250 316 432 498>
VStem: 62 66<227.169 570> 250 66<0 692> 432 66<230.351 570>
LayerCount: 2
Fore
SplineSet
276 165 m 3
 366 165 432 214 432 319 c 2
 432 570 l 25
 498 570 l 1
 498 309 l 18
 498 187 409 105 280 105 c 3
 151 105 62 187 62 309 c 2
 62 570 l 1
 128 570 l 25
 128 319 l 2
 128 214 186 165 276 165 c 3
316 0 m 1
 250 0 l 1
 250 692 l 1
 316 692 l 1
 316 0 l 1
EndSplineSet
EndChar
StartChar: colon
Encoding: 58 58 115
Width: 330
Flags: W
HStem: 0 88<132 198> 332 88<132 198>
VStem: 132 66<0 88 332 420>
LayerCount: 2
Fore
SplineSet
198 0 m 5
 132 0 l 29
 132 88 l 5
 198 88 l 29
 198 0 l 5
198 332 m 1
 132 332 l 25
 132 420 l 1
 198 420 l 25
 198 332 l 1
EndSplineSet
EndChar
StartChar: semicolon
Encoding: 59 59 114
Width: 330
Flags: W
HStem: 332 88<132 198>
VStem: 132 66<332 420>
LayerCount: 2
Fore
SplineSet
198 332 m 1
 132 332 l 25
 132 420 l 1
 198 420 l 25
 198 332 l 1
135 -144 m 5
 92 -143 l 5
 132 88 l 5
 218 88 l 21
 218 69 l 5
 135 -144 l 5
EndSplineSet
EndChar
StartChar: less
Encoding: 60 60 116
Width: 450
Flags: W
HStem: 704 20G<297.086 378>
VStem: 77 301
LayerCount: 2
Fore
SplineSet
77 260 m 5
 307 724 l 1
 378 724 l 1
 378 711 l 1
 155 253 l 5
 378 -205 l 1
 378 -218 l 1
 307 -218 l 1
 77 246 l 5
 77 260 l 5
EndSplineSet
EndChar
StartChar: equal
Encoding: 61 61 109
Width: 460
Flags: W
HStem: 162 60<90 370> 352 60<90 370>
VStem: 90 280<162 222 352 412>
LayerCount: 2
Fore
SplineSet
90 222 m 1
 370 222 l 1
 370 162 l 1
 90 162 l 1
 90 222 l 1
90 412 m 1
 370 412 l 1
 370 352 l 1
 90 352 l 1
 90 412 l 1
EndSplineSet
EndChar
StartChar: greater
Encoding: 62 62 117
Width: 450
Flags: W
HStem: 704 20G<72 152.914>
VStem: 72 301
LayerCount: 2
Fore
SplineSet
373 246 m 5
 143 -218 l 1
 72 -218 l 1
 72 -205 l 1
 295 253 l 5
 72 711 l 1
 72 724 l 1
 143 724 l 1
 373 260 l 5
 373 246 l 5
EndSplineSet
EndChar
StartChar: question
Encoding: 63 63 110
Width: 640
Flags: W
HStem: -8 60<227.556 400.89> 416 20G<124 218> 627 60<149 478>
VStem: 82 66<128.096 332.958> 478 66<130.489 627>
LayerCount: 2
Fore
SplineSet
544 226 m 7
 544 57 447 -8 309 -8 c 4
 161 -8 82 97 82 209 c 7
 82 301 102 365 146 436 c 5
 218 436 l 5
 218 421 l 5
 164 341 148 284 148 209 c 7
 148 124 214 52 314 52 c 4
 414 52 478 118 478 226 c 4
 478 627 l 1
 149 627 l 1
 149 687 l 1
 544 687 l 1
 544 226 l 7
EndSplineSet
EndChar
StartChar: bracketleft
Encoding: 91 91 112
Width: 380
Flags: W
HStem: -213 60<158 338> 627 60<158 338>
VStem: 92 66<-153 627>
LayerCount: 2
Fore
SplineSet
338 -213 m 5
 92 -213 l 29
 92 687 l 1
 338 687 l 1
 338 627 l 1
 158 627 l 1
 158 -153 l 5
 338 -153 l 5
 338 -213 l 5
EndSplineSet
EndChar
StartChar: bracketright
Encoding: 93 93 113
Width: 380
Flags: W
HStem: -213 60<42 222> 627 60<42 222>
VStem: 222 66<-153 627>
LayerCount: 2
Fore
SplineSet
42 687 m 1
 288 687 l 25
 288 -213 l 5
 42 -213 l 5
 42 -153 l 5
 222 -153 l 5
 222 627 l 1
 42 627 l 1
 42 687 l 1
EndSplineSet
EndChar
StartChar: a
Encoding: 97 97 2
Width: 580
Flags: W
HStem: 0 21G<60 148.551 434 500> 233 55<340.823 402.713> 431 60<88 386>
VStem: 434 66<0 198.751>
LayerCount: 2
Fore
SplineSet
500 0 m 1
 434 0 l 1
 434 100 l 2
 434 175 413 233 345 233 c 3
 296 233 271 204 157 68 c 1
 118 56 l 1
 223 202 258 288 365 288 c 3
 475 288 500 198 500 100 c 2
 500 0 l 1
133 0 m 1
 60 0 l 1
 60 14 l 1
 386 431 l 1
 88 431 l 1
 88 491 l 1
 479 491 l 1
 479 445 l 1
 133 0 l 1
EndSplineSet
Substitution2: "hexadecimal-1" A.hex
EndChar
StartChar: b
Encoding: 98 98 22
Width: 630
Flags: W
HStem: -8 60<229.491 392.951> 436 56<355 410.146> 612 21G<125 168.5> 668 60<193.448 405.283>
VStem: 82 66<136.616 378.68> 355 85<444.575 477.174> 447 66<523.937 632.452> 478 66<143.875 357.294>
LayerCount: 2
Fore
SplineSet
308 668 m 3xfe
 256 668 202 661 135 612 c 1
 125 612 l 1
 125 685 l 1
 185 720 256 728 308 728 c 3
 438 728 513 670 513 590 c 3xfe
 513 529 491 490 440 464 c 1
 440 459 l 1
 486 433 544 379 544 248 c 3
 544 81 447 -8 309 -8 c 0
 171 -8 82 90 82 227 c 3
 82 364 112 425 156 496 c 1
 228 496 l 1
 228 481 l 1
 174 401 148 352 148 237 c 3
 148 122 214 52 314 52 c 0
 414 52 478 138 478 243 c 3xfd
 478 369 421 426 355 436 c 1
 355 492 l 1
 407 496 447 530 447 585 c 3
 447 637 385 668 308 668 c 3xfe
EndSplineSet
Substitution2: "hexadecimal-1" B.hex
EndChar
StartChar: c
Encoding: 99 99 31
Width: 540
Flags: W
HStem: -4 60<205.44 427.366> 29 61<401.914 463> 232 60<124 430> 431 60<72 113 198 460> 442 20G<97.5 198>
VStem: 124 11<232 292>
LayerCount: 2
Back
SplineSet
124 332 m 5
 460 332 l 5
 460 272 l 5
 124 272 l 5
 124 332 l 5
EndSplineSet
Fore
SplineSet
124 292 m 1x24
 430 292 l 1
 430 232 l 1
 124 232 l 1
 124 292 l 1x24
198 462 m 1xac
 151 412 135 332 135 236 c 3
 135 70 236 56 319 56 c 3xac
 362 56 410 66 451 90 c 1
 463 90 l 1
 463 29 l 1x64
 422 8 366 -4 311 -4 c 3
 176 -4 65 45 65 229 c 3
 65 330 82 412 113 462 c 1
 198 462 l 1xac
72 491 m 1x34
 460 491 l 1
 460 431 l 1
 72 431 l 1
 72 491 l 1x34
EndSplineSet
Substitution2: "hexadecimal-1" C.hex
EndChar
StartChar: d
Encoding: 100 100 14
Width: 580
Flags: W
HStem: -4 60<207.157 374.615> 431 60<96 192> 704 20G<434 524>
VStem: 77 66<117.658 304.665> 192 63<407.541 431> 400 66<372.787 638.25> 442 66<123.638 372.787>
LayerCount: 2
Fore
SplineSet
291 -4 m 7xfa
 173 -4 77 56 77 201 c 3
 77 327 143 387 192 425 c 1
 192 431 l 1
 96 431 l 1
 96 491 l 1
 255 491 l 1
 255 394 l 1
 196 356 143 311 143 203 c 3
 143 101 211 56 293 56 c 7
 373 56 442 105 442 214 c 3xfa
 442 345 400 395 400 509 c 3
 400 604 415 656 453 724 c 1
 524 724 l 1
 524 714 l 17
 488 648 466 597 466 509 c 3xfc
 466 405 508 360 508 217 c 3
 508 68 419 -4 291 -4 c 7xfa
EndSplineSet
Substitution2: "hexadecimal-1" D.hex
EndChar
StartChar: e
Encoding: 101 101 12
Width: 380
Flags: W
HStem: 5 60<158 338> 476 20G<92 158>
VStem: 92 66<65 496>
LayerCount: 2
Fore
SplineSet
338 5 m 5
 92 5 l 29
 92 496 l 1
 158 496 l 17
 158 65 l 5
 338 65 l 5
 338 5 l 5
EndSplineSet
Substitution2: "hexadecimal-1" E.hex
EndChar
StartChar: f
Encoding: 102 102 33
Width: 620
Flags: W
HStem: 5 60<162 460> 476 20G<96 162> 595 21G<97.4872 132.5> 668 60<187.099 391.64>
VStem: 96 66<65 496> 460 66<5 599.363>
LayerCount: 2
Fore
SplineSet
526 5 m 5
 460 5 l 5
 460 510 l 2
 460 614 397 668 301 668 c 0
 220 668 157 640 108 595 c 9
 98 595 l 1
 96 673 l 1
 130 701 212 728 298 728 c 0
 415 728 526 669 526 510 c 2
 526 5 l 5
460 5 m 5
 96 5 l 29
 96 496 l 1
 162 496 l 17
 162 65 l 5
 460 65 l 5
 460 5 l 5
EndSplineSet
Substitution2: "hexadecimal-1" F.hex
EndChar
StartChar: g
Encoding: 103 103 18
Width: 527
Flags: W
HStem: -222 60<193.231 428.026> -192 67<409.133 478> 101 60<258.198 409> 411 21G<288 441> 431 60<82 288> 437 20G<283.5 406.522>
VStem: 73 66<-114.786 15.5961> 102 66<183.673 291.024>
LayerCount: 2
Fore
SplineSet
441 411 m 1xb5
 277 366 168 314 168 232 c 3xb5
 168 180 221 156 277 156 c 3
 322 156 354 160 397 161 c 1
 409 161 l 1
 409 101 l 1
 210 97 139 28 139 -51 c 3
 139 -126 204 -162 295 -162 c 3xb6
 370 -162 418 -149 458 -125 c 1
 478 -125 l 1
 478 -192 l 1x62
 435 -212 376 -222 295 -222 c 3
 176 -222 73 -172 73 -57 c 3xa2
 73 23 127 88 182 110 c 1
 182 115 l 1
 135 133 102 179 102 228 c 3
 102 333 187 390 380 457 c 1
 441 411 l 1xb5
82 491 m 1x28
 441 491 l 1x28
 441 411 l 1
 288 411 l 1x30
 288 431 l 1
 82 431 l 1
 82 491 l 1x28
EndSplineSet
EndChar
StartChar: h
Encoding: 104 104 89
Width: 470
Flags: W
HStem: -222 60<50.9426 245.932> -214 62<50 165.129> 431 60<52 308>
VStem: 308 66<-95.6763 431>
LayerCount: 2
Fore
SplineSet
308 -10 m 0xb0
 308 431 l 1
 52 431 l 1
 52 491 l 1
 374 491 l 1
 374 -10 l 0
 374 -159 293 -222 173 -222 c 0xb0
 134 -222 85 -220 50 -214 c 1
 50 -152 l 1
 65 -152 l 1x70
 92 -158 127 -162 167 -162 c 0
 252 -162 308 -105 308 -10 c 0xb0
EndSplineSet
EndChar
StartChar: i
Encoding: 105 105 5
Width: 590
Flags: W
HStem: 5 60<91 197> 440 60<216.7 377.342>
VStem: 82 66<191.958 369.828> 197 63<65 86.793> 436 66<0 382.719>
LayerCount: 2
Fore
SplineSet
502 300 m 10
 502 0 l 1
 436 0 l 25
 436 290 l 2
 436 395 380 440 290 440 c 3
 217 440 148 383 148 285 c 3
 148 194 198 141 260 102 c 1
 260 5 l 1
 91 5 l 1
 91 65 l 1
 197 65 l 1
 197 71 l 1
 144 110 82 173 82 282 c 3
 82 419 180 500 294 500 c 3
 423 500 502 422 502 300 c 10
EndSplineSet
EndChar
StartChar: j
Encoding: 106 106 6
Width: 600
Flags: W
HStem: 5 60<91 197> 446 60<214.486 380.312>
VStem: 82 66<196.18 377.953> 197 63<65 87.0508> 442 66<-218 383.831>
LayerCount: 2
Fore
SplineSet
508 302 m 2
 508 -218 l 5
 442 -218 l 25
 442 292 l 2
 442 397 385 446 292 446 c 3
 215 446 148 393 148 291 c 3
 148 200 198 141 260 102 c 1
 260 5 l 1
 91 5 l 1
 91 65 l 1
 197 65 l 1
 197 71 l 1
 144 110 82 179 82 288 c 3
 82 431 175 506 296 506 c 3
 429 506 508 424 508 302 c 2
EndSplineSet
EndChar
StartChar: l
Encoding: 108 108 24
Width: 520
Flags: W
HStem: -221 60<186.007 380> 4 70<92 217.622> 4 60<93.9637 305.09> 410 61<77 137.679> 444 60<112.649 322.128>
VStem: 117 68<-161 -140.132> 392 66<157.239 370.418>
LayerCount: 2
Back
SplineSet
77 471 m 1x94
 118 492 173 504 228 504 c 0
 362 504 458 446 458 268 c 0
 458 178 422 111 367 73 c 1
 367 70 l 1
 404 68 427 56 427 28 c 0
 427 -6 391 -23 298 -80 c 0
 236 -118 195 -139 190 -150 c 1
 190 -154 l 1
 380 -154 l 1
 380 -214 l 1
 190 -214 l 2
 147 -214 118 -200 118 -168 c 0
 118 -125 161 -100 243 -50 c 0
 302 -14 348 5 353 20 c 1
 353 24 l 1
 225 24 l 2xac
 169 24 134 26 92 31 c 1
 92 94 l 1
 101 94 l 1xc4
 136 88 169 84 220 84 c 0
 322 84 392 147 392 266 c 0
 392 401 329 444 226 444 c 0xac
 180 444 130 434 89 410 c 1
 77 410 l 1
 77 471 l 1x94
77 467 m 1x48
 118 488 164 500 219 500 c 3
 343 500 458 427 458 247 c 3
 458 74 347 -14 225 -14 c 3x98
 169 -14 125 -5 79 11 c 1
 79 78 l 1
 88 78 l 1x28
 134 58 170 46 227 46 c 3
 317 46 392 120 392 245 c 3
 392 377 310 440 217 440 c 3x98
 171 440 130 430 89 406 c 1
 77 406 l 1
 77 467 l 1x48
EndSplineSet
Fore
SplineSet
77 471 m 1x96
 118 492 173 504 228 504 c 0
 362 504 458 441 458 263 c 0
 458 173 422 91 367 53 c 1
 367 49 l 1
 384 48 l 2
 426.968965517 45.4724137931 447 36 447 8 c 0
 447 -26 402.109375 -52.388671875 302.206054688 -95.61328125 c 0
 210.745117188 -135.1875 190 -146 185 -157 c 1
 185 -161 l 1
 380 -161 l 1
 380 -221 l 1
 190 -221 l 2
 147 -221 117 -202 117 -170 c 0
 117 -127 172.966796875 -98.7861328125 260.793945312 -60.38671875 c 0
 350.282226562 -21.259765625 370 -9 379 0 c 1
 379 4 l 1
 225 4 l 2xae
 169 4 134 6 92 11 c 1
 92 74 l 1
 101 74 l 1xc6
 136 68 169 64 220 64 c 0
 322 64 392 142 392 261 c 0
 392 396 329 444 226 444 c 0xae
 180 444 130 434 89 410 c 1
 77 410 l 1
 77 471 l 1x96
EndSplineSet
EndChar
StartChar: m
Encoding: 109 109 29
Width: 530
Flags: W
HStem: 2 60<168.303 462> 431 60<196 438> 662 60<97 197.898>
VStem: 77 68<82.5863 258.472> 205 68<511.864 652.179>
LayerCount: 2
Fore
SplineSet
196 491 m 1
 438 491 l 25
 438 431 l 1
 196 431 l 1
 196 491 l 1
77 139 m 3
 77 189 91 241 117 317 c 2
 177 495 l 2
 192 538 205 594 205 613 c 3
 205 652 182 662 97 662 c 1
 97 722 l 1
 116 722 l 1
 204 722 273 710 273 623 c 3
 273 592 258 531 244 489 c 2
 183 309 l 2
 157 232 145 180 145 144 c 3
 145 84 177 62 244 62 c 3
 310 62 393 62 462 62 c 1
 462 2 l 1
 379 2 318 2 237 2 c 3
 142 2 77 39 77 139 c 3
EndSplineSet
EndChar
StartChar: n
Encoding: 110 110 15
Width: 520
Flags: W
HStem: -214 60<148.005 485> 6 66<309.295 432> 408 67<379.786 452> 440 60<218.585 419.609>
VStem: 67 66<143.521 348.287> 74 69<-148.579 -74.3894>
LayerCount: 2
Back
SplineSet
432 3.6953125 m 1
 405.208007812 -3.90234375 338.140625 -10 306 -10 c 7
 182 -10 67 63 67 243 c 3
 67 416 178 504 300 504 c 3x98
 356 504 400 495 446 479 c 1
 446 412 l 1
 437 412 l 1x28
 391 432 355 444 298 444 c 3
 208 444 133 370 133 245 c 3
 133 113 215 50 308 50 c 3x98
 335.325195312 50 403.012695312 56.923828125 422 66.2236328125 c 1
 432 66.2236328125 l 1
 432 3.6953125 l 1
140.02734375 -111.333984375 m 3
 140.02734375 -130.745117188 161.831054688 -132 175 -132 c 2
 475 -132 l 1
 475 -192 l 1
 175 -192 l 2
 126.615234375 -192 74 -172.911132812 74 -120 c 3
 74 -48 146 -9 355.775390625 52.0693359375 c 1
 377.119140625 -3.5322265625 l 1
 192 -46.9658203125 140.02734375 -86.677734375 140.02734375 -111.333984375 c 3
347 16 m 17
 233 -29 105 -75 105 -130 c 3
 105 -162 144 -162 173 -162 c 3
 269 -162 333 -162 429 -162 c 1049
EndSplineSet
Fore
SplineSet
143 -113 m 0xd4
 143 -142 164 -154 191 -154 c 2
 485 -154 l 1
 485 -214 l 1
 183 -214 l 2
 129 -214 74 -194 74 -128 c 0xd4
 74 -72 126 -18 211 14 c 1
 211 18 l 1
 132 47 67 108 67 241 c 0
 67 414 178 500 300 500 c 0xd8
 356 500 406 492 452 475 c 1
 452 408 l 1
 443 408 l 1xe8
 399 428 355 440 298 440 c 0
 208 440 133 368 133 243 c 0xd8
 133 111 215 60 308 60 c 0
 335 60 403 66 422 72 c 1
 432 72 l 1
 432 6 l 1
 385 3 328 -4 254 -28 c 0
 180 -52 143 -85 143 -113 c 0xd4
EndSplineSet
EndChar
StartChar: o
Encoding: 111 111 0
Width: 580
Flags: W
HStem: -4 60<189.012 324.622> 476 20G<90 156 422 488>
VStem: 90 66<90.2155 496> 422 66<0 145 173 496>
LayerCount: 2
Fore
SplineSet
422 496 m 1
 488 496 l 25
 488 0 l 1
 422 0 l 25
 422 496 l 1
90 496 m 1
 156 496 l 1
 156 174 l 2
 156 119 177 56 245 56 c 3
 316 56 369 103 425 173 c 1
 460 145 l 1
 414 73 347 -4 240 -4 c 3
 130 -4 90 76 90 174 c 2
 90 496 l 1
EndSplineSet
EndChar
StartChar: r
Encoding: 114 114 23
Width: 460
Flags: W
HStem: -222 60<54.5247 312.025> -208 62<53 217.153> 0 21G<57 126.5> 58 60<166.86 330.091> 312 20G<57 123>
VStem: 57 66<80 332> 370 66<-110.573 19.9986>
LayerCount: 2
Back
SplineSet
13 -96.8603515625 m 5
 88.3134765625 -122.7265625 151.65234375 -132 219 -132 c 4
 299.24609375 -132 370 -100.95703125 370 -36 c 4
 370 24.7763671875 316.1640625 48 254 48 c 4
 204.065429688 48 146.015625 18.82421875 106.623046875 -10 c 5
 57 -10 l 5
 57 332 l 5
 123 332 l 5
 123 69.6357421875 l 5
 161.342773438 91.1650390625 207.3046875 108 257 108 c 4
 352.234375 108 436 69.8544921875 436 -33 c 4
 436 -142.09375 338.776367188 -192 219 -192 c 4
 137.760742188 -192 76.6904296875 -181.772460938 3 -161.84375 c 5
 3 -96.8603515625 l 5
 13 -96.8603515625 l 5
125 332 m 25
 125 20 l 1
 138 20 l 17
 179 50 235 78 292 78 c 27
 369 78 438 41 438 -36 c 27
 438 -111 386 -162 294 -162 c 3
 216 -162 125 -144 20 -108 c 1033
EndSplineSet
Fore
SplineSet
63 -146 m 1x7e
 107 -156 162 -162 220 -162 c 4
 300 -162 370 -121 370 -46 c 0
 370 25 316 58 254 58 c 0
 204 58 146 29 107 0 c 1
 57 0 l 1
 57 332 l 1
 123 332 l 1
 123 80 l 1
 161 102 207 118 257 118 c 0
 352 118 436 75 436 -43 c 4
 436 -167 337 -222 220 -222 c 4xbe
 159 -222 115 -217 53 -208 c 1
 53 -146 l 1
 63 -146 l 1x7e
EndSplineSet
EndChar
StartChar: s
Encoding: 115 115 10
Width: 500
Flags: W
HStem: -222 60<168.08 363.728> 0 60<156.071 328.917> 234 60<196 302.186> 400 21G<103 129.5> 446 60<151.39 314.203>
VStem: 75 66<-132.821 47> 338 66<325.269 423.373> 356 66<87.2794 206.35>
LayerCount: 2
Back
SplineSet
80 50 m 5
 146 50 l 5
 146 -44 l 6
 146 -92 195 -132 261 -132 c 4
 334 -132 395 -106 438 -47 c 13
 448 -47 l 5
 500 -85 l 5
 441 -166 348 -192 261 -192 c 4
 167 -192 80 -132 80 -44 c 6
 80 50 l 5
136 50 m 25
 136 -44 l 18
 136 -112 204 -162 284 -162 c 3
 364 -162 444 -138 495 -68 c 1033
91.2744140625 428 m 17
 144.388671875 463.26953125 211.102539062 477.348632812 249.280273438 477.348632812 c 0
 317.799804688 477.348632812 363.401367188 442 363.401367188 366.982421875 c 0
 363.401367188 295 289.294921875 261 200.522460938 261 c 1
 298.235351562 261 393.8671875 236.263671875 393.8671875 137.194335938 c 0
 393.8671875 62 319.546875 26.0478515625 247.830078125 26.0478515625 c 0
 199.7734375 26.0478515625 151.024414062 42.83203125 115.903320312 65 c 1025
EndSplineSet
Fore
SplineSet
75 52 m 1xfc
 141 54 l 1
 141 -84 l 2
 141 -132 180 -162 256 -162 c 0
 319 -162 364 -148 413 -108 c 9
 423 -108 l 1
 425 -182 l 1
 391 -208 333 -222 256 -222 c 0
 152 -222 75 -172 75 -84 c 2
 75 52 l 1xfc
237 506 m 3
 322 506 404 471 404 376 c 3xfe
 404 321 371 290 336 275 c 1
 336 270 l 1
 383 257 422 218 422 151 c 3
 422 50 350 0 263 0 c 3
 204 0 150 17 110 47 c 1
 75 52 l 1
 75 96 l 1
 130 98 l 1
 162 72 220 60 266 60 c 3
 316 60 356 89 356 148 c 3xfd
 356 228 288 234 196 234 c 1
 196 294 l 1
 258 294 338 311 338 371 c 3xfe
 338 427 293 446 237 446 c 3
 192 446 146 425 113 400 c 9
 103 400 l 1
 103 466 l 1
 130 485 178 506 237 506 c 3
EndSplineSet
EndChar
StartChar: t
Encoding: 116 116 9
Width: 520
Flags: W
HStem: -4 63<371.683 435> 431 60<42 294 360 448> 431 43<294 360>
VStem: 294 66<70.7299 474>
LayerCount: 2
Back
SplineSet
42 491 m 5
 398 491 l 29
 398 -10 l 5
 332 -10 l 21
 332 431 l 5
 42 431 l 5
 42 491 l 5
EndSplineSet
Fore
SplineSet
435 -1 m 1xb0
 424 -3 412 -4 399 -4 c 3
 340 -4 294 29 294 125 c 2
 294 474 l 1
 360 474 l 1
 360 135 l 2
 360 74 384 59 418 59 c 3
 426 59 435 60 446 63 c 1
 446 53 l 25
 435 -1 l 1xb0
42 491 m 1xd0
 448 491 l 25
 448 431 l 1
 42 431 l 1
 42 491 l 1xd0
EndSplineSet
EndChar
StartChar: u
Encoding: 117 117 11
Width: 680
Flags: W
HStem: -4 21G<273 430.5> 22 34<323 389> 431 60<96 162> 440 60<405.386 502.452>
VStem: 77 66<134.97 326.135> 96 129<431 491> 162 63<402.631 431> 323 66<22 426.326> 552 66<147.347 380.026>
LayerCount: 2
Fore
SplineSet
323 22 m 29xdb80
 323 334 l 18
 323 457 352 500 435 500 c 3xdb80
 518 500 618 446 618 266 c 3
 618 67 511 -4 350 -4 c 7
 196 -4 77 60 77 222 c 3
 77 341 131 393 162 425 c 1
 162 431 l 1xeb80
 96 431 l 1
 96 491 l 1
 225 491 l 1xe580
 225 400 l 1
 190 365 143 323 143 226 c 3
 143 92 235 56 352 56 c 7
 479 56 552 108 552 269 c 3
 552 402 492 440 448 440 c 3
 413 440 389 421 389 336 c 10
 389 22 l 29
 323 22 l 29xdb80
EndSplineSet
EndChar
StartChar: v
Encoding: 118 118 4
Width: 600
Flags: W
HStem: -4 60<192.145 380.282> 433 60<97 164.679> 704 20G<438 504>
VStem: 82 66<97.1359 248.863> 170 68<333.367 427.874> 438 66<0 65 124 724>
LayerCount: 2
Fore
SplineSet
438 724 m 1
 504 724 l 25
 504 0 l 1
 438 0 l 1
 438 724 l 1
82 161 m 3
 82 277 170 334 170 392 c 3
 170 431 142 433 97 433 c 1
 97 493 l 1
 116 493 l 1
 162 493 238 489 238 402 c 3
 238 319 148 264 148 166 c 3
 148 85 210 56 277 56 c 3
 343 56 393 77 451 124 c 1
 470 65 l 1
 417 20 351 -4 270 -4 c 3
 175 -4 82 40 82 161 c 3
EndSplineSet
EndChar
StartChar: w
Encoding: 119 119 13
Width: 680
Flags: W
HStem: -4 60<228.257 464.464> 431 60<96 162> 440 60<405.386 502.452>
VStem: 77 66<134.97 326.135> 96 129<431 491> 162 63<402.631 431> 323 66<-218 426.326> 552 66<147.347 380.026>
LayerCount: 2
Fore
SplineSet
323 -218 m 29xb7
 323 334 l 18
 323 457 352 500 435 500 c 3xb7
 518 500 618 446 618 266 c 3
 618 67 511 -4 350 -4 c 3
 196 -4 77 60 77 222 c 3
 77 341 131 393 162 425 c 1
 162 431 l 1xd7
 96 431 l 1
 96 491 l 1
 225 491 l 1xcb
 225 400 l 1
 190 365 143 323 143 226 c 3
 143 92 235 56 352 56 c 3
 479 56 552 108 552 269 c 3
 552 402 492 440 448 440 c 3
 413 440 389 421 389 336 c 10
 389 -218 l 29
 323 -218 l 29xb7
EndSplineSet
EndChar
StartChar: x
Encoding: 120 120 83
Width: 270
Flags: W
HStem: 244 88<102 168>
VStem: 102 66<244 332>
LayerCount: 2
Fore
SplineSet
168 244 m 5
 102 244 l 29
 102 332 l 5
 168 332 l 29
 168 244 l 5
EndSplineSet
EndChar
StartChar: y
Encoding: 121 121 7
Width: 780
Flags: W
HStem: -4 60<442.928 558.293> 5 60<91 177> 440 60<193.748 329.393>
VStem: 82 66<187.991 389.869> 177 63<65 92.0416> 355 66<78.6558 414.457> 622 66<0 496>
LayerCount: 2
Back
SplineSet
632 496 m 1
 698 496 l 25
 698 -10 l 1
 632 -10 l 25
 632 496 l 1
300 496 m 1
 366 496 l 1
 366 164 l 2
 366 109 387 46 455 46 c 3
 526 46 579 93 635 163 c 1
 670 135 l 1
 624 63 557 -14 450 -14 c 3
 340 -14 300 66 300 164 c 2
 300 496 l 1
361 266 m 1
 427 266 l 1
 427 156 l 2
 427 96 437 46 495 46 c 3
 545 46 589 93 645 163 c 1
 680 135 l 1
 621.861328125 44 572 -14 490 -14 c 3
 400 -14 361 48 361 156 c 2
 361 266 l 1
427 326 m 10
 427 210 l 1
 361 210 l 25
 361 316 l 2
 361 401 328 440 265 440 c 3
 206 440 143 389 143 281 c 3
 143 190 181 128 235 85 c 1
 235 -5 l 1
 86 -5 l 1
 86 55 l 1
 172 55 l 1
 172 61 l 1
 127 100 77 169 77 278 c 3
 77 425 167 500 269 500 c 3
 369.505859375 500 427 438 427 326 c 10
EndSplineSet
Fore
SplineSet
622 496 m 1x3e
 688 496 l 25
 688 0 l 5
 622 0 l 29
 622 496 l 1x3e
355 333 m 2
 355 386 348 440 262 440 c 3
 205 440 148 404 148 299 c 3
 148 208 187 138 240 95 c 5
 240 5 l 5
 91 5 l 5
 91 65 l 5
 177 65 l 5x7e
 177 71 l 5
 130 110 82 187 82 296 c 3
 82 432 154 500 264 500 c 3
 397 500 421 416 421 316 c 2
 421 159 l 6
 421 107 437 56 493 56 c 4
 539 56 579 82 625 153 c 5
 660 125 l 5
 612 39 564 -4 488 -4 c 4xbe
 390 -4 355 63 355 159 c 6
 355 333 l 2
EndSplineSet
EndChar
StartChar: z
Encoding: 122 122 37
Width: 610
Flags: W
HStem: -214 60<216 480> 0 21G<134 228> 440 60<226.76 385.292>
VStem: 82 66<109.888 349.608> 140 76<-154 -127.904> 462 66<149.75 356.554>
LayerCount: 2
Fore
SplineSet
480 -154 m 1xec
 480 -214 l 1
 210 -214 l 2
 167 -214 140 -195 140 -163 c 0xec
 140 -122 164 -93 286 -9 c 0
 391 64 462 128 462 256 c 3
 462 380 392 440 302 440 c 3
 219 440 148 376 148 238 c 3
 148 142 174 83 228 15 c 1
 228 0 l 1
 156 0 l 1
 112 54 82 123 82 235 c 3xf4
 82 422 178 500 306 500 c 3
 435 500 528 418 528 266 c 3
 528 88 448 22 320 -66 c 0
 254 -111 220 -141 216 -150 c 1
 216 -154 l 1
 480 -154 l 1xec
EndSplineSet
EndChar
StartChar: aacute
Encoding: 225 225 72
Width: 580
Flags: W
HStem: 0 21G<60 148.551 434 500> 233 55<340.823 402.713> 431 60<88 386> 564 21G<372 429.536>
VStem: 434 66<0 198.751>
LayerCount: 2
Fore
SplineSet
500 0 m 1
 434 0 l 1
 434 100 l 2
 434 175 413 233 345 233 c 3
 296 233 271 204 157 68 c 1
 118 56 l 1
 223 202 258 288 365 288 c 3
 475 288 500 198 500 100 c 2
 500 0 l 1
133 0 m 1
 60 0 l 1
 60 14 l 1
 386 431 l 1
 88 431 l 1
 88 491 l 1
 479 491 l 1
 479 445 l 1
 133 0 l 1
415 564 m 5
 372 565 l 5
 462 766 l 5
 548 766 l 21
 548 747 l 5
 415 564 l 5
EndSplineSet
EndChar
StartChar: acircumflex
Encoding: 226 226 75
Width: 790
Flags: W
HStem: -4 60<193.111 315.794 452.928 568.293> 476 20G<139 238 365 431 632 698> 564 21G<582 639.536>
VStem: 77 66<112.38 353.034> 365 66<128.59 496> 632 66<0 496>
LayerCount: 2
Fore
SplineSet
143 211 m 3
 143 95 203 56 253 56 c 3
 299 56 339 85 368 147 c 1
 407 104 l 1
 368 27 313 -4 251 -4 c 3
 163 -4 77 46 77 201 c 3
 77 335 112 425 166 496 c 1
 238 496 l 1
 238 481 l 1
 174 401 143 319 143 211 c 3
632 496 m 1
 698 496 l 25
 698 0 l 1
 632 0 l 25
 632 496 l 1
431 496 m 25
 431 159 l 2
 431 107 447 56 503 56 c 0
 549 56 589 82 635 153 c 1
 670 125 l 1
 622 39 574 -4 498 -4 c 0
 400 -4 365 63 365 159 c 2
 365 496 l 25
 431 496 l 25
625 564 m 5
 582 565 l 5
 672 766 l 5
 758 766 l 21
 758 747 l 5
 625 564 l 5
EndSplineSet
EndChar
StartChar: aring
Encoding: 229 229 93
Width: 790
Flags: W
HStem: -4 60<193.111 315.794 452.928 568.293> 476 20G<139 238 365 431 632 698>
VStem: 77 66<112.38 353.034> 365 66<128.59 496> 632 66<0 496>
LayerCount: 2
Fore
SplineSet
143 211 m 7
 143 95 203 56 253 56 c 7
 299 56 339 85 368 147 c 5
 407 104 l 5
 368 27 313 -4 251 -4 c 7
 163 -4 77 46 77 201 c 7
 77 335 112 425 166 496 c 5
 238 496 l 5
 238 481 l 5
 174 401 143 319 143 211 c 7
632 496 m 5
 698 496 l 29
 698 0 l 5
 632 0 l 29
 632 496 l 5
431 496 m 29
 431 159 l 6
 431 107 447 56 503 56 c 4
 549 56 589 82 635 153 c 5
 670 125 l 5
 622 39 574 -4 498 -4 c 4
 400 -4 365 63 365 159 c 6
 365 496 l 29
 431 496 l 29
EndSplineSet
EndChar
StartChar: ae
Encoding: 230 230 3
Width: 600
Flags: W
HStem: -4 60<196.407 360.503> 431 60<96 192>
VStem: 77 66<112.079 303.255> 192 63<407.434 431> 442 66<0 122 162 496>
LayerCount: 2
Back
SplineSet
100 496 m 5
 166 496 l 5
 166 161 l 6
 166 106 187 46 255 46 c 7
 326 46 379 93 435 163 c 5
 470 135 l 5
 424 63 357 -14 250 -14 c 7
 140 -14 100 66 100 164 c 6
 100 496 l 5
EndSplineSet
Fore
SplineSet
77 199 m 3
 77 325 143 387 192 425 c 1
 192 431 l 1
 96 431 l 1
 96 491 l 1
 255 491 l 1
 255 394 l 1
 196 356 143 309 143 201 c 3
 143 99 204 56 271 56 c 7
 341 56 399 88 446 162 c 5
 477 122 l 5
 432 36 360 -4 269 -4 c 7
 169 -4 77 54 77 199 c 3
442 496 m 1
 508 496 l 25
 508 0 l 5
 442 0 l 29
 442 496 l 1
EndSplineSet
EndChar
StartChar: ccedilla
Encoding: 231 231 69
Width: 520
Flags: W
HStem: -222 60<71.2068 313.274> -201 60<70 234.143> 5 60<84 390> 408 64<338.92 399> 444 60<162.148 360.381>
VStem: 75 66<324.723 423.398> 382 8<5 65>
LayerCount: 2
Fore
SplineSet
84 65 m 1x26
 390 65 l 1
 390 5 l 1
 84 5 l 1
 84 65 l 1x26
75 374 m 3
 75 466 148 504 248 504 c 3xae
 306 504 355 493 399 472 c 1
 399 408 l 1
 389 408 l 1x36
 344 435 286 444 238 444 c 3
 186 444 141 427 141 374 c 3
 141 330 178 302 270 263 c 0
 376 218.065217391 448 164 448 24 c 3
 448 -111 385 -222 237 -222 c 3xae
 176 -222 118 -213 70 -201 c 1
 70 -141 l 1
 80 -141 l 1x66
 129 -155 179 -162 237 -162 c 3xa6
 317 -162 382 -108 382 20 c 3
 382 138 324 169.714285714 216 216 c 0
 132 252 75 289 75 374 c 3
EndSplineSet
EndChar
StartChar: eacute
Encoding: 233 233 127
Width: 380
Flags: W
HStem: 5 60<158 338> 476 20G<92 158> 564 21G<172 229.536>
VStem: 92 66<65 496>
LayerCount: 2
Fore
SplineSet
215 564 m 5
 172 565 l 5
 262 766 l 5
 348 766 l 21
 348 747 l 5
 215 564 l 5
338 5 m 1
 92 5 l 25
 92 496 l 1
 158 496 l 17
 158 65 l 1
 338 65 l 1
 338 5 l 1
EndSplineSet
EndChar
StartChar: eth
Encoding: 240 240 27
Width: 500
Flags: W
HStem: -214 60<134.069 430> 234 60<186 290.269> 400 21G<93 119.5> 496 10<205.41 263> 576 56<178.389 263.31> 704 15G<113 173 312 397>
VStem: 64 69<-151.736 -98.8617> 113 60<635.906 724> 328 66<326.722 424.647> 346 66<88.9315 200.655>
LayerCount: 2
Fore
SplineSet
113 724 m 1xfd
 173 724 l 1
 173 682 l 2
 173 647 187 632 216 632 c 3
 249 632 289 649 335 719 c 1
 363 698 l 1
 317 626 255 576 199 576 c 3
 134 576 113 622 113 672 c 2
 113 724 l 1xfd
263 495 m 1
 205 496 l 1
 335 719 l 1
 397 719 l 17
 397 685 l 1
 263 495 l 1
133 -130 m 0xfe40
 133 -149 152 -154 171 -154 c 2
 430 -154 l 1
 430 -214 l 1
 165 -214 l 2
 113 -214 64 -192 64 -139 c 0
 64 -88 89 -57 211 5 c 0
 278 39 346 87 346 144 c 3xfe40
 346 224 268 234 186 234 c 1
 186 294 l 1
 248 294 328 313 328 373 c 3
 328 429 283 446 227 446 c 3
 182 446 136 425 103 400 c 9
 93 400 l 1
 93 466 l 1
 120 485 168 506 227 506 c 3
 332 506 394 463 394 378 c 3xfc80
 394 323 361 290 326 275 c 1
 326 270 l 1
 373 249 412 214 412 147 c 3
 412 49 335 0 245 -45 c 0
 160 -88 133 -112 133 -130 c 0xfe40
EndSplineSet
EndChar
StartChar: oacute
Encoding: 243 243 131
Width: 580
Flags: WO
HStem: -4 60<189.012 324.622> 476 20G<90 156 422 488> 564 21G<372 429.536>
VStem: 90 66<90.2155 496> 422 66<0 145 173 496>
LayerCount: 2
Fore
SplineSet
415 564 m 5
 372 565 l 5
 462 766 l 5
 548 766 l 21
 548 747 l 5
 415 564 l 5
422 496 m 1
 488 496 l 25
 488 0 l 1
 422 0 l 25
 422 496 l 1
90 496 m 1
 156 496 l 1
 156 174 l 2
 156 119 177 56 245 56 c 3
 316 56 369 103 425 173 c 1
 460 145 l 1
 414 73 347 -4 240 -4 c 3
 130 -4 90 76 90 174 c 2
 90 496 l 1
EndSplineSet
EndChar
StartChar: oslash
Encoding: 248 248 30
Width: 790
Flags: W
HStem: -4 60<186.036 315.794 452.928 568.293> 431 60<96 192>
VStem: 77 66<100.1 292.687> 192 63<406.627 431> 365 66<128.59 496> 632 66<0 496>
LayerCount: 2
Back
SplineSet
622 496 m 5
 688 496 l 29
 688 -10 l 5
 622 -10 l 29
 622 496 l 5
355 328 m 6
 355 381 348 440 262 440 c 3
 205 440 148 399 148 294 c 3
 148 203 187 128 240 85 c 1
 240 -5 l 1
 91 -5 l 1
 91 55 l 1
 177 55 l 1
 177 61 l 1
 130 100 82 182 82 291 c 3
 82 427.00390625 154 500 264 500 c 3
 397 500 421 411 421 311 c 6
 421 149 l 6
 421 97 437 46 493 46 c 4
 539 46 579 72 625 143 c 5
 660 115 l 5
 611.861328125 29 564 -14 488 -14 c 4
 390 -14 355 53 355 149 c 6
 355 328 l 6
EndSplineSet
Fore
SplineSet
632 496 m 1
 698 496 l 25
 698 0 l 1
 632 0 l 25
 632 496 l 1
431 496 m 25
 431 159 l 2
 431 107 447 56 503 56 c 0
 549 56 589 82 635 153 c 1
 670 125 l 1
 622 39 574 -4 498 -4 c 0
 400 -4 365 63 365 159 c 2
 365 496 l 25
 431 496 l 25
251 -4 m 3
 163 -4 77 44 77 184 c 3
 77 310 143 387 192 425 c 1
 192 431 l 1
 96 431 l 1
 96 491 l 1
 255 491 l 1
 255 394 l 1
 196 356 143 294 143 186 c 3
 143 84 203 56 253 56 c 3
 299 56 339 85 368 147 c 1
 407 104 l 1
 368 27 313 -4 251 -4 c 3
EndSplineSet
EndChar
StartChar: yacute
Encoding: 253 253 34
Width: 780
Flags: W
HStem: -4 60<442.928 558.293> 5 60<91 177> 440 60<193.748 329.393> 564 21G<572 629.536>
VStem: 82 66<187.991 389.869> 177 63<65 92.0416> 355 66<78.6558 414.457> 622 66<0 496>
LayerCount: 2
Fore
SplineSet
622 496 m 1x3f
 688 496 l 25
 688 0 l 1
 622 0 l 25
 622 496 l 1x3f
355 333 m 2
 355 386 348 440 262 440 c 3
 205 440 148 404 148 299 c 3
 148 208 187 138 240 95 c 1
 240 5 l 1
 91 5 l 1
 91 65 l 1
 177 65 l 1x7f
 177 71 l 1
 130 110 82 187 82 296 c 3
 82 432 154 500 264 500 c 3
 397 500 421 416 421 316 c 2
 421 159 l 2
 421 107 437 56 493 56 c 0
 539 56 579 82 625 153 c 1
 660 125 l 1
 612 39 564 -4 488 -4 c 0xbf
 390 -4 355 63 355 159 c 2
 355 333 l 2
615 564 m 5
 572 565 l 5
 662 766 l 5
 748 766 l 21
 748 747 l 5
 615 564 l 5
EndSplineSet
EndChar
StartChar: thorn
Encoding: 254 254 35
Width: 480
Flags: W
HStem: -214 60<124.069 410> 410 21G<82 114.5> 496 8<195 253> 576 56<168.389 253.31> 704 15G<103 163 302 387>
VStem: 54 69<-151.736 -82.8343> 103 60<635.906 724> 336 66<248.262 406.882>
LayerCount: 2
Back
SplineSet
133.02734375 -100.333984375 m 0
 133.02734375 -119.745117188 151.831054688 -124 171 -124 c 2
 430 -124 l 1
 430 -184 l 1
 165 -184 l 2
 112.615234375 -184 64 -161.911132812 64 -109 c 0
 64 -57.7783203125 87 -29.5556640625 212 26 c 0
 281.09375 56.7080078125 346 87 346 144 c 3
 346 224 268 234 186 234 c 1
 186 294 l 1
 248 294 328 313 328 373 c 3
 328 429 283 446 227 446 c 3
 182 446 136 425 103 400 c 9
 93 400 l 1
 93 466 l 1
 120 485 168 506 227 506 c 3
 332 506 394 463.024414062 394 378 c 3
 394 322.875 361 290 326 275 c 1
 326 270 l 1
 373 249 412 214 412 147 c 3
 412 49 336 14.697265625 244 -26 c 0
 157.2578125 -64.37109375 133.02734375 -82.03125 133.02734375 -100.333984375 c 0
133 -100 m 0
 133 -119 152 -124 171 -124 c 2
 430 -124 l 1
 430 -184 l 1
 165 -184 l 2
 113 -184 64 -162 64 -109 c 0
 64 -58 89.77734375 -35.7158203125 202 87 c 0
 298.022460938 192 346 265 346 339 c 0
 346 407 303 444 226 444 c 0
 180 444 145 434 104 410 c 1
 92 410 l 1
 92 471 l 1
 132 494 173 504 228 504 c 0
 333 504 412 443 412 341 c 0
 412 225 346.088867188 148 234 27 c 0
 169.543945312 -42.580078125 133 -82 133 -100 c 0
EndSplineSet
Fore
SplineSet
123 -130 m 0xfd
 123 -149 142 -154 161 -154 c 2
 410 -154 l 1
 410 -214 l 1
 155 -214 l 2
 103 -214 54 -192 54 -139 c 0
 54 -88 80 -45 192 78 c 0
 288 183 336 265 336 339 c 0
 336 407 293 444 216 444 c 0
 170 444 135 434 94 410 c 1
 82 410 l 1
 82 471 l 1
 122 494 163 504 218 504 c 0
 323 504 402 443 402 341 c 0
 402 225 336 139 224 18 c 0
 160 -52 123 -112 123 -130 c 0xfd
103 724 m 1xfb
 163 724 l 1
 163 682 l 2
 163 647 177 632 206 632 c 3
 239 632 279 649 325 719 c 1
 353 698 l 1
 307 626 245 576 189 576 c 3
 124 576 103 622 103 672 c 2
 103 724 l 1xfb
253 495 m 1
 195 496 l 1
 325 719 l 1
 387 719 l 17
 387 685 l 1
 253 495 l 1
EndSplineSet
EndChar
StartChar: ccaron
Encoding: 269 269 73
Width: 480
Flags: W
HStem: -5 60<110.749 311.79> 27 61<75 136.195> 231 60<181 287.186> 395 21G<88 114.5> 496 5<200.41 258> 659 60<94 330>
VStem: 323 66<322.269 419.896> 341 66<83.7678 202.603>
LayerCount: 2
Fore
SplineSet
94 719 m 1x3c
 330 719 l 25
 352 659 l 1
 94 659 l 25
 94 719 l 1x3c
258 495 m 1
 200 496 l 1
 330 719 l 1
 392 719 l 17
 392 685 l 1
 258 495 l 1
222 501 m 3
 307 501 389 468 389 373 c 3xbe
 389 318 356 287 321 272 c 1
 321 267 l 1
 368 254 407 214 407 147 c 3
 407 46 336 -5 230 -5 c 3xbd
 161 -5 115 7 75 27 c 1
 75 88 l 1
 85 88 l 1x7d
 117 72 171 55 233 55 c 3
 303 55 341 85 341 144 c 3xbd
 341 224 273 231 181 231 c 1
 181 291 l 1
 243 291 323 308 323 368 c 3xbe
 323 424 278 441 222 441 c 3
 177 441 131 420 98 395 c 9
 88 395 l 1
 88 461 l 1
 115 480 163 501 222 501 c 3
EndSplineSet
EndChar
StartChar: gbreve
Encoding: 287 287 25
Width: 580
Flags: W
HStem: -4 60<209.415 376.932> 431 60<96 192> 659 60<98 438>
VStem: 77 66<119.995 305.369> 192 63<407.595 431> 401 66<364.834 620.873> 442 66<123.879 374.2>
LayerCount: 2
Fore
SplineSet
98 659 m 1xfc
 98 719 l 1
 510 719 l 1
 510 658 l 17
 483 621 467 568 467 490 c 3xfc
 467 396 508 356 508 220 c 7
 508 66 422 -4 294 -4 c 3
 176 -4 77 57 77 202 c 7
 77 328 143 387 192 425 c 1
 192 431 l 1
 96 431 l 1
 96 491 l 1
 255 491 l 1
 255 394 l 1
 196 356 143 312 143 204 c 7
 143 102 214 56 296 56 c 3
 376 56 442 103 442 217 c 7xfa
 442 340 401 401 401 490 c 3
 401 564 416 618 438 659 c 1
 98 659 l 1xfc
EndSplineSet
EndChar
StartChar: lslash
Encoding: 322 322 86
Width: 520
Flags: W
HStem: -221 60<186.007 380> 4 70<92 217.622> 4 60<93.9637 305.09> 410 61<77 137.679> 444 60<112.649 322.128> 586 21G<207.69 306.31>
VStem: 117 68<-161 -140.132> 392 66<157.239 370.418>
LayerCount: 2
Fore
SplineSet
77 471 m 5x97
 118 492 173 504 228 504 c 4
 362 504 458 441 458 263 c 4
 458 173 422 91 367 53 c 5
 367 49 l 5
 384 48 l 6
 426.968965517 45.4724137931 447 36 447 8 c 4
 447 -26 402.109375 -52.388671875 302.206054688 -95.61328125 c 4
 210.745117188 -135.1875 190 -146 185 -157 c 5
 185 -161 l 5
 380 -161 l 5
 380 -221 l 5
 190 -221 l 6
 147 -221 117 -202 117 -170 c 4
 117 -127 172.966796875 -98.7861328125 260.793945312 -60.38671875 c 4
 350.282226562 -21.259765625 370 -9 379 0 c 5
 379 4 l 5
 225 4 l 6xaf
 169 4 134 6 92 11 c 5
 92 74 l 5
 101 74 l 5xc7
 136 68 169 64 220 64 c 4
 322 64 392 142 392 261 c 4
 392 396 329 444 226 444 c 4xaf
 180 444 130 434 89 410 c 5
 77 410 l 5
 77 471 l 5x97
427 766 m 25
 427 754 l 25
 290 586 l 25
 224 586 l 25
 87 754 l 25
 87 766 l 25
 145 766 l 25
 257 652 l 25
 369 766 l 25
 427 766 l 25
EndSplineSet
EndChar
StartChar: Ncaron
Encoding: 327 327 87
Width: 520
Flags: W
HStem: -184 60<143.389 485> -4 66<309.295 432> 408 67<379.786 452> 440 60<218.585 419.609> 586 21G<247.69 346.31>
VStem: 67 66<141.397 348.287> 74 69<-122.311 -76.8491>
LayerCount: 2
Fore
SplineSet
467 766 m 29xc8
 467 754 l 29
 330 586 l 29
 264 586 l 29
 127 754 l 29
 127 766 l 29
 185 766 l 29
 297 652 l 29
 409 766 l 29
 467 766 l 29xc8
143 -103 m 0xda
 143 -122 164 -124 181 -124 c 2
 485 -124 l 1
 485 -184 l 1
 175 -184 l 2
 127 -184 74 -165 74 -112 c 0xda
 74 -61 126 -28 211 4 c 1
 211 8 l 1
 132 37 67 108 67 241 c 0
 67 414 178 500 300 500 c 0xdc
 356 500 406 492 452 475 c 1
 452 408 l 1
 443 408 l 1xec
 399 428 355 440 298 440 c 0
 208 440 133 368 133 243 c 0xdc
 133 111 215 50 308 50 c 0
 335 50 403 56 422 62 c 1
 432 62 l 1
 432 -4 l 1
 385 -7 328 -14 254 -38 c 0
 180 -62 143 -85 143 -103 c 0xda
EndSplineSet
EndChar
StartChar: ncaron
Encoding: 328 328 85
Width: 520
Flags: W
HStem: -214 60<148.005 485> 6 66<309.295 432> 408 67<379.786 452> 440 60<218.585 419.609> 586 21G<247.69 346.31>
VStem: 67 66<143.521 348.287> 74 69<-148.579 -74.3894>
LayerCount: 2
Fore
SplineSet
143 -113 m 0xda
 143 -142 164 -154 191 -154 c 2
 485 -154 l 1
 485 -214 l 1
 183 -214 l 2
 129 -214 74 -194 74 -128 c 0xda
 74 -72 126 -18 211 14 c 1
 211 18 l 1
 132 47 67 108 67 241 c 0
 67 414 178 500 300 500 c 0xdc
 356 500 406 492 452 475 c 1
 452 408 l 1
 443 408 l 1xec
 399 428 355 440 298 440 c 0
 208 440 133 368 133 243 c 0xdc
 133 111 215 60 308 60 c 0
 335 60 403 66 422 72 c 1
 432 72 l 1
 432 6 l 1
 385 3 328 -4 254 -28 c 0
 180 -52 143 -85 143 -113 c 0xda
467 766 m 29
 467 754 l 29
 330 586 l 29
 264 586 l 29
 127 754 l 29
 127 766 l 29
 185 766 l 29
 297 652 l 29
 409 766 l 29
 467 766 l 29
EndSplineSet
EndChar
StartChar: scaron
Encoding: 353 353 74
Width: 480
Flags: W
HStem: -9 60<110.749 311.79> 23 61<75 136.195> 227 60<181 287.186> 630 64<335.92 396> 666 60<164.159 357.381>
VStem: 72 66<534.559 639.202> 323 66<317.543 415.056> 341 66<79.7678 198.603>
LayerCount: 2
Fore
SplineSet
226 507 m 0x2e
 310 495 389 463 389 368 c 3x2e
 389 313 356 283 321 268 c 1
 321 263 l 1
 368 250 407 210 407 143 c 3
 407 42 336 -9 230 -9 c 3xad
 161 -9 115 3 75 23 c 1
 75 84 l 1
 85 84 l 1x65
 117 68 171 51 233 51 c 3
 303 51 341 81 341 140 c 3xa5
 341 220 273 227 181 227 c 1
 181 287 l 1
 243 287 323 303 323 363 c 3
 323 419 273 439 218 447 c 0
 144 457 72 494 72 583 c 3
 72 687 137 726 245 726 c 3xae
 303 726 352 715 396 694 c 1
 396 630 l 1
 386 630 l 1x36
 341 657 283 666 235 666 c 3
 183 666 138 638 138 592 c 3
 138 543 168 515 226 507 c 0x2e
EndSplineSet
EndChar
StartChar: uni0163
Encoding: 355 355 20
Width: 500
Flags: W
HStem: -214 60<134.069 430> 234 60<186 290.269> 400 21G<93 119.5> 496 10<205.41 263> 659 60<99 335>
VStem: 64 69<-151.736 -98.8617> 328 66<326.722 424.647> 346 66<88.9315 200.655>
LayerCount: 2
Fore
SplineSet
133 -130 m 0xfd
 133 -149 152 -154 171 -154 c 2
 430 -154 l 1
 430 -214 l 1
 165 -214 l 2
 113 -214 64 -192 64 -139 c 0
 64 -88 89 -57 211 5 c 0
 278 39 346 87 346 144 c 3xfd
 346 224 268 234 186 234 c 1
 186 294 l 1
 248 294 328 313 328 373 c 3
 328 429 283 446 227 446 c 3
 182 446 136 425 103 400 c 9
 93 400 l 1
 93 466 l 1
 120 485 168 506 227 506 c 3
 332 506 394 463 394 378 c 3xfe
 394 323 361 290 326 275 c 1
 326 270 l 1
 373 249 412 214 412 147 c 3
 412 49 335 0 245 -45 c 0
 160 -88 133 -112 133 -130 c 0xfd
99 719 m 1
 335 719 l 25
 357 659 l 1
 99 659 l 25
 99 719 l 1
263 495 m 1
 205 496 l 1
 335 719 l 1
 397 719 l 17
 397 685 l 1
 263 495 l 1
EndSplineSet
EndChar
StartChar: zcaron
Encoding: 382 382 91
Width: 590
Flags: W
HStem: -222 60<130.412 404.148> -192 65<73 166.853> 0 21G<92 158> 444 60<243.61 374.252> 476 20G<92 158>
VStem: 92 66<0 496> 414 66<209.835 402.285> 460 66<-112.989 6.43461>
LayerCount: 2
Fore
SplineSet
294 108 m 0xa5
 455 108 526 50 526 -48 c 0
 526 -167 434 -222 304 -222 c 0xa5
 233 -222 147 -212 73 -192 c 1
 73 -127 l 1
 93 -127 l 1x65
 157 -154 237 -162 304 -162 c 0
 394 -162 460 -123 460 -51 c 0
 460 17 396 48 294 48 c 0
 294 108 l 0xa5
158 0 m 1
 92 0 l 25
 92 496 l 1
 158 496 l 25x2c
 158 0 l 1
334 57 m 1
 294 108 l 1
 359 145 414 206 414 317 c 3
 414 377 388 444 314 444 c 3
 248 444 205 398 155 327 c 1
 120 355 l 1
 165 431 218 504 319 504 c 3
 434 504 480 419 480 317 c 3x36
 480 218 448 152 391 100 c 1
 390 88 l 1
 376 76 351 67 334 57 c 1
EndSplineSet
EndChar
StartChar: aeacute
Encoding: 509 509 26
Width: 600
Flags: W
HStem: -4 60<196.407 360.503> 431 60<96 192> 564 21G<392 449.536>
VStem: 77 66<112.079 303.255> 192 63<407.434 431> 442 66<0 122 162 496>
LayerCount: 2
Fore
SplineSet
77 199 m 3
 77 325 143 387 192 425 c 1
 192 431 l 1
 96 431 l 1
 96 491 l 1
 255 491 l 1
 255 394 l 1
 196 356 143 309 143 201 c 3
 143 99 204 56 271 56 c 3
 341 56 399 88 446 162 c 1
 477 122 l 1
 432 36 360 -4 269 -4 c 3
 169 -4 77 54 77 199 c 3
442 496 m 1
 508 496 l 25
 508 0 l 1
 442 0 l 25
 442 496 l 1
435 564 m 5
 392 565 l 5
 482 766 l 5
 568 766 l 21
 568 747 l 5
 435 564 l 5
EndSplineSet
EndChar
StartChar: oslashacute
Encoding: 511 511 19
Width: 790
Flags: W
HStem: -4 60<186.036 315.794 452.928 568.293> 431 60<96 192> 564 21G<582 639.536>
VStem: 77 66<100.1 292.687> 192 63<406.627 431> 365 66<128.59 496> 632 66<0 496>
LayerCount: 2
Fore
SplineSet
632 496 m 1
 698 496 l 25
 698 0 l 1
 632 0 l 25
 632 496 l 1
431 496 m 25
 431 159 l 2
 431 107 447 56 503 56 c 0
 549 56 589 82 635 153 c 1
 670 125 l 1
 622 39 574 -4 498 -4 c 0
 400 -4 365 63 365 159 c 2
 365 496 l 25
 431 496 l 25
251 -4 m 3
 163 -4 77 44 77 184 c 3
 77 310 143 387 192 425 c 1
 192 431 l 1
 96 431 l 1
 96 491 l 1
 255 491 l 1
 255 394 l 1
 196 356 143 294 143 186 c 3
 143 84 203 56 253 56 c 3
 299 56 339 85 368 147 c 1
 407 104 l 1
 368 27 313 -4 251 -4 c 3
625 564 m 5
 582 565 l 5
 672 766 l 5
 758 766 l 21
 758 747 l 5
 625 564 l 5
EndSplineSet
EndChar
StartChar: uni02D0
Encoding: 720 720 120
Width: 0
Flags: W
HStem: 564 202
VStem: -208 176
LayerCount: 2
Fore
SplineSet
-165 564 m 1
 -208 565 l 1
 -118 766 l 1
 -32 766 l 17
 -32 747 l 1
 -165 564 l 1
EndSplineSet
EndChar
StartChar: uni1E27
Encoding: 7719 7719 118
Width: 470
Flags: W
HStem: -222 60<50.9426 245.932> -214 62<50 165.129> 431 60<52 308> 563 49<182.484 262.576> 717 49<183.424 262.891>
VStem: 120 55<618.982 708.77> 271 55<620.415 709.543> 308 66<-95.6763 431>
LayerCount: 2
Fore
SplineSet
120 666 m 3x3e
 120 724 164 766 222 766 c 3
 280 766 326 735 326 663 c 3
 326 605 282 563 224 563 c 3
 166 563 120 594 120 666 c 3x3e
175 664 m 3
 175 626 198 612 223 612 c 3
 248 612 271 633 271 662 c 3
 271 700 248 717 223 717 c 3
 198 717 175 698 175 664 c 3
308 -10 m 0xbd
 308 431 l 1
 52 431 l 1
 52 491 l 1
 374 491 l 1
 374 -10 l 0
 374 -159 293 -222 173 -222 c 0xbd
 134 -222 85 -220 50 -214 c 1
 50 -152 l 1
 65 -152 l 1x7d
 92 -158 127 -162 167 -162 c 0
 252 -162 308 -105 308 -10 c 0xbd
EndSplineSet
EndChar
StartChar: A.hex
Encoding: 65537 -1 121
Width: 560
Flags: W
HStem: -4 60<215.907 377.084> 450 60<212.515 373.717>
VStem: 62 66<146.581 356.678> 462 66<149.322 359.419>
LayerCount: 2
Fore
SplineSet
279 86 m 3
 156 86 52 159 52 339 c 3
 52 512 159 600 280 600 c 3
 404 600 508 527 508 347 c 3
 508 174 401 86 279 86 c 3
278 540 m 3
 189 540 118 466 118 341 c 3
 118 209 189 146 281 146 c 3
 371 146 442 220 442 345 c 3
 442 477 371 540 278 540 c 3
316 0 m 1x58
 250 0 l 1
 250 692 l 1
 316 692 l 1
 316 0 l 1x58
EndSplineSet
EndChar
StartChar: B.hex
Encoding: 65538 -1 122
Width: 560
Flags: W
HStem: 5 60<138 412.222> 672 20G<96 162 381.946 464>
VStem: 96 66<65 692> 138 24<5 65> 338 66<163.471 384.118> 412.222 71.7783<65 94.6469>
LayerCount: 2
Fore
SplineSet
162 5 m 1xdc
 96 5 l 1
 96 692 l 1
 162 692 l 1xec
 162 5 l 1xdc
484 87.634765625 m 1
 484 5 l 1
 138 5 l 1
 138 65 l 1xdc
 412.221679688 65 l 1
 412.221679688 69 l 1
 367.899414062 114.219726562 338 192.572265625 338 271 c 0
 338 355.0234375 365.891601562 422 398 466 c 1
 464 466 l 1
 464 451 l 1
 423.5 393 404 343 404 268 c 0
 404 192.991210938 428.368164062 137.197265625 484 87.634765625 c 1
EndSplineSet
EndChar
StartChar: C.hex
Encoding: 65539 -1 123
Width: 560
Flags: W
HStem: -222 60<50.9426 245.932> -214 62<50 165.129> 431 60<52 308>
VStem: 308 66<-95.6763 431>
LayerCount: 2
Fore
SplineSet
130.392578125 159 m 1x30
 148 88 199.181640625 56 267 56 c 0
 372 56 398 143 398 248 c 0
 398 627 l 1
 92 627 l 1
 92 687 l 1
 464 687 l 1
 464 248 l 0
 464 99 413 -4 263 -4 c 0
 161.158203125 -4 97 46 64 144 c 1
 64 159 l 1
 130.392578125 159 l 1x30
EndSplineSet
EndChar
StartChar: D.hex
Encoding: 65540 -1 124
Width: 560
Flags: W
HStem: -4 60<207.347 350.623> 636 60<211.111 348.243>
VStem: 67 68<162.04 523.345> 425 68<162.04 523.345>
LayerCount: 2
Fore
SplineSet
112 326 m 29x30
 112 386 l 29
 452 386 l 29
 452 326 l 29
 112 326 l 29x30
67 367 m 2
 67 548 145 696 282 696 c 0
 419 696 493 548 493 367 c 2
 493 315 l 2
 493 134 415 -4 278 -4 c 0
 141 -4 67 134 67 315 c 2
 67 367 l 2
425 367 m 2
 425 517 391 636 280 636 c 0
 170 636 135 517 135 367 c 2
 135 315 l 2
 135 165 169 56 280 56 c 0
 390 56 425 165 425 315 c 2
 425 367 l 2
EndSplineSet
EndChar
StartChar: E.hex
Encoding: 65541 -1 125
Width: 560
Flags: W
HStem: 4 60<135 250 316 425> 20 44<250 316> 627 60<140 250 316 420> 627 37<250 316>
VStem: 250 66<20 662>
LayerCount: 2
Fore
SplineSet
282 636 m 3x08
 196.52238806 636 144 567 144 479 c 3
 144 423 150 369 194 301 c 1
 194 286 l 1
 122 286 l 1
 88 340 78 404 78 476 c 3
 78 613 154 696 282 696 c 3
 402.490196078 696 482 610 482 480 c 3
 482 407 472 340 438 286 c 1
 366 286 l 1
 366 301 l 1
 410 369 416 421 416 475 c 3
 416 568 365 636 282 636 c 3x08
85 4 m 1x88
 85 64 l 1
 475 64 l 1x48
 475 4 l 1
 85 4 l 1x88
314 20 m 5
 248 20 l 5
 248 662 l 5
 278 664 l 5
 314 664 l 5x58
 314 20 l 5
EndSplineSet
EndChar
StartChar: F.hex
Encoding: 65542 -1 126
Width: 560
Flags: W
HStem: 0 21G<96 162 394 488> 406 60<138 401.222> 672 20G<96 162>
VStem: 96 66<0 406 466 692> 138 24<406 466> 342 66<94.8462 324.47> 401.222 66.7783<364.661 406>
LayerCount: 2
Fore
SplineSet
162 0 m 1xf0
 96 0 l 1
 96 692 l 1
 162 692 l 1
 162 0 l 1xf0
468 383.365234375 m 1xea
 426.276367188 342.706054688 408 275.087890625 408 198 c 0
 408 123 434 73 488 15 c 1
 488 0 l 1
 416 0 l 1
 372 44 342 110.9765625 342 195 c 0xe4
 342 275.369140625 368.088867188 355.661132812 401.221679688 402 c 1
 401.221679688 406 l 1
 138 406 l 1
 138 466 l 1
 468 466 l 1
 468 383.365234375 l 1xea
EndSplineSet
EndChar
StartChar: y_uni0306
Encoding: 65536 -1 16
Width: 780
Flags: W
HStem: -4 60<441.184 554.293> 5 60<91 177> 440 60<195.881 328.139>
VStem: 82 66<187.364 389.114> 177 63<65 91.976> 353 66<78.6558 414.746> 618 66<-218 496>
LayerCount: 2
Fore
SplineSet
618 496 m 1x3e
 684 496 l 1
 684 -218 l 1
 618 -218 l 25
 618 496 l 1x3e
353 328 m 2
 353 381 348 440 262 440 c 3
 205 440 148 403 148 298 c 3
 148 207 187 138 240 95 c 1
 240 5 l 1
 91 5 l 1
 91 65 l 1
 177 65 l 1x7e
 177 71 l 1
 130 110 82 186 82 295 c 3
 82 431 154 500 264 500 c 3
 397 500 419 411 419 311 c 2
 419 159 l 2
 419 107 433 56 489 56 c 0
 535 56 575 82 621 153 c 1
 656 125 l 1
 608 39 560 -4 484 -4 c 0xbe
 386 -4 353 63 353 159 c 2
 353 328 l 2
EndSplineSet
Ligature2: "liga-1" Y uni0306
Ligature2: "liga-1" y uni0306
LCarets2: 1 470
EndChar
